<?xml version="1.0" encoding="utf-8"?>
<!-- Generator: Adobe Illustrator 24.3.0, SVG Export Plug-In . SVG Version: 6.00 Build 0)  -->
<svg version="1.1" id="Layer_1" xmlns="http://www.w3.org/2000/svg" xmlns:xlink="http://www.w3.org/1999/xlink" x="0px" y="0px"
	 viewBox="0 0 64 64" style="enable-background:new 0 0 64 64;" xml:space="preserve">
<style type="text/css">
	.st0{fill:url(#SVGID_1_);}
	.st1{fill:url(#SVGID_2_);}
	.st2{fill:url(#SVGID_3_);}
	.st3{fill:url(#SVGID_4_);}
	.st4{fill:url(#SVGID_5_);}
	.st5{fill:url(#SVGID_6_);}
	.st6{fill:url(#SVGID_7_);}
	.st7{fill:url(#SVGID_8_);}
	.st8{fill:url(#SVGID_9_);}
	.st9{fill:url(#SVGID_10_);}
	.st10{display:none;fill:#2F3742;}
	.st11{display:none;fill:#F26B5B;}
	.st12{display:none;fill:#0F3F3C;}
	.st13{fill:url(#SVGID_11_);}
	.st14{fill:url(#SVGID_12_);}
	.st15{fill:url(#SVGID_13_);}
	.st16{fill:#4A8CFF;}
	.st17{fill:url(#SVGID_14_);}
	.st18{fill:url(#SVGID_15_);}
	.st19{fill:url(#SVGID_16_);}
	.st20{fill:url(#SVGID_17_);}
	.st21{opacity:0.7;fill:url(#SVGID_18_);}
	.st22{fill:url(#SVGID_19_);}
	.st23{fill:url(#SVGID_20_);}
	.st24{fill:url(#SVGID_21_);}
	.st25{fill:url(#SVGID_22_);}
	.st26{fill:url(#SVGID_23_);}
	.st27{fill:url(#SVGID_24_);}
	.st28{fill:url(#SVGID_25_);}
	.st29{fill:url(#SVGID_26_);}
	.st30{opacity:0.7;fill:url(#SVGID_27_);}
	.st31{fill:url(#SVGID_28_);}
	.st32{fill:url(#SVGID_29_);}
	.st33{fill:url(#SVGID_30_);}
	.st34{fill:url(#SVGID_31_);}
	.st35{fill:url(#SVGID_32_);}
	.st36{fill:url(#SVGID_33_);}
	.st37{fill:url(#SVGID_34_);}
	.st38{fill:url(#SVGID_35_);}
	.st39{opacity:0.7;fill:url(#SVGID_36_);}
	.st40{fill:url(#SVGID_37_);}
	.st41{fill:url(#SVGID_38_);}
	.st42{fill:url(#SVGID_39_);}
	.st43{fill:url(#SVGID_40_);}
	.st44{fill:url(#SVGID_41_);}
	.st45{fill:url(#SVGID_42_);}
	.st46{fill:url(#SVGID_43_);}
	.st47{fill:url(#SVGID_44_);}
	.st48{opacity:0.7;fill:url(#SVGID_45_);}
	.st49{fill:url(#SVGID_46_);}
	.st50{fill:url(#SVGID_47_);}
	.st51{fill:url(#SVGID_48_);}
	.st52{fill:url(#SVGID_49_);}
	.st53{fill:url(#SVGID_50_);}
	.st54{fill:url(#SVGID_51_);}
	.st55{fill:url(#SVGID_52_);}
	.st56{fill:url(#SVGID_53_);}
	.st57{opacity:0.7;fill:url(#SVGID_54_);}
	.st58{fill:url(#SVGID_55_);}
</style>
<g>
	<radialGradient id="SVGID_1_" cx="31.9536" cy="32" r="36.0231" gradientUnits="userSpaceOnUse">
		<stop  offset="0" style="stop-color:#1A1D4A"/>
		<stop  offset="0.72" style="stop-color:#0D0E27"/>
		<stop  offset="1" style="stop-color:#080718"/>
	</radialGradient>
	<polygon class="st0" points="-4.09,68 -4.09,-4 68,-4 68,68 	"/>
	<radialGradient id="SVGID_2_" cx="31.9537" cy="32" r="32.0232" gradientUnits="userSpaceOnUse">
		<stop  offset="0" style="stop-color:#1A1D4A"/>
		<stop  offset="0.72" style="stop-color:#0D0E27"/>
		<stop  offset="1" style="stop-color:#080718"/>
	</radialGradient>
	<rect x="-0.09" class="st1" width="64.09" height="64"/>
</g>
<g>
	<g>
		<g>
			<linearGradient id="SVGID_3_" gradientUnits="userSpaceOnUse" x1="47.0291" y1="57.072" x2="13.449" y2="5.2991">
				<stop  offset="0" style="stop-color:#1D81D4"/>
				<stop  offset="0.1118" style="stop-color:#2E8BD7"/>
				<stop  offset="0.3345" style="stop-color:#5CA4E0"/>
				<stop  offset="0.6473" style="stop-color:#A5CDEE"/>
				<stop  offset="1" style="stop-color:#FFFFFF"/>
			</linearGradient>
			<path class="st2" d="M44.69,23.14c-0.01,0.01-0.01,0.02-0.02,0.02c0.38,0.65,0.72,1.33,1,2.03c0.6,1.45,0.96,3,1.1,4.56
				c0.05,0.55,0.07,1.09,0.07,1.64c-0.02,2.11-0.48,4.21-1.31,6.14c-0.83,1.93-2.06,3.67-3.56,5.12c-1.5,1.45-3.28,2.59-5.21,3.34
				c-1.92,0.76-3.99,1.13-6.05,1.1c-4.12-0.04-8.16-1.74-11.04-4.66c-2.91-2.88-4.62-6.93-4.65-11.04
				c-0.02-2.05,0.34-4.12,1.11-6.04c0.75-1.92,1.89-3.7,3.34-5.21c1.45-1.5,3.19-2.72,5.11-3.56c1.92-0.83,4.02-1.29,6.13-1.32
				c0.6-0.01,1.2,0.02,1.8,0.08c1.51,0.15,2.99,0.51,4.4,1.09c1.05,0.43,2.05,0.97,2.99,1.61c0.01,0,0.01-0.01,0.02-0.01
				c-2.68-1.86-5.92-2.91-9.2-2.93c-0.19,0-0.38,0-0.58,0h0c-1.94,0.04-3.88,0.42-5.7,1.15c-2,0.78-3.84,1.97-5.4,3.47
				c-1.55,1.5-2.83,3.31-3.69,5.31c-0.86,2-1.34,4.17-1.36,6.36c-0.02,2.19,0.38,4.39,1.22,6.42c0.83,2.03,2.08,3.9,3.63,5.46
				c1.56,1.55,3.43,2.79,5.46,3.62c2.04,0.83,4.23,1.23,6.42,1.21c2.19-0.03,4.36-0.5,6.36-1.36c2-0.86,3.81-2.13,5.31-3.69
				c1.5-1.56,2.68-3.4,3.47-5.4c0.71-1.78,1.09-3.69,1.14-5.59c0.01-0.23,0.01-0.45,0.01-0.68C46.98,28.48,46.16,25.61,44.69,23.14z
				"/>
			<linearGradient id="SVGID_4_" gradientUnits="userSpaceOnUse" x1="-2.2094" y1="49.2841" x2="37.4455" y2="9.6293">
				<stop  offset="0" style="stop-color:#1D81D4"/>
				<stop  offset="0.1118" style="stop-color:#2E8BD7"/>
				<stop  offset="0.3345" style="stop-color:#5CA4E0"/>
				<stop  offset="0.6473" style="stop-color:#A5CDEE"/>
				<stop  offset="1" style="stop-color:#FFFFFF"/>
			</linearGradient>
			<path class="st3" d="M23.64,16.1c-0.23,0.09-0.46,0.16-0.68,0.26l-0.67,0.28l-0.66,0.32c-0.22,0.11-0.43,0.23-0.65,0.34
				c-0.85,0.48-1.66,1.02-2.43,1.63l-0.56,0.47c-0.18,0.16-0.36,0.33-0.54,0.49c-0.18,0.16-0.35,0.34-0.52,0.52l-0.51,0.53
				c-1.31,1.46-2.37,3.14-3.14,4.95c-0.78,1.81-1.22,3.76-1.37,5.74c-0.02,0.25-0.02,0.49-0.03,0.74c-0.01,0.25-0.03,0.5-0.01,0.75
				l0.02,0.75l0.01,0.19l0.02,0.19l0.04,0.37c0.07,0.99,0.28,1.97,0.51,2.95c-0.29-0.96-0.55-1.93-0.69-2.93l-0.06-0.37l-0.03-0.19
				l-0.02-0.19l-0.06-0.75c-0.03-0.25-0.02-0.5-0.03-0.76c0-0.25-0.01-0.51-0.01-0.76l0.04-0.76c0.01-0.13,0.01-0.25,0.02-0.38
				l0.05-0.38l0.09-0.75c0.04-0.25,0.09-0.5,0.14-0.75c0.08-0.5,0.23-0.99,0.35-1.48c0.02-0.06,0.03-0.12,0.05-0.18l0.06-0.18
				l0.12-0.36l0.12-0.36c0.04-0.12,0.08-0.24,0.13-0.36c0.73-1.9,1.78-3.68,3.1-5.25l0.51-0.57c0.17-0.19,0.34-0.38,0.53-0.56
				c0.18-0.18,0.36-0.36,0.55-0.53L18,18.26c0.79-0.66,1.63-1.25,2.51-1.77c1.77-1.05,3.73-1.77,5.75-2.17
				c2.02-0.39,4.11-0.43,6.16-0.14c1.02,0.14,2.03,0.39,3.01,0.71c0.98,0.32,1.94,0.72,2.85,1.2c0.77,0.4,1.5,0.87,2.21,1.37
				c-0.06,0.07-0.12,0.14-0.18,0.2c-0.12,0.13-0.25,0.25-0.4,0.36c-0.01,0.01-0.01,0.01-0.02,0.01c-0.1,0.08-0.2,0.15-0.31,0.22
				c-0.59-0.42-1.21-0.8-1.84-1.14c-1.63-0.86-3.4-1.46-5.23-1.78c-0.09-0.02-0.18-0.03-0.26-0.05c-0.7-0.11-1.4-0.18-2.11-0.2h0
				c-1.23-0.04-2.47,0.04-3.69,0.26C25.49,15.52,24.55,15.77,23.64,16.1z"/>
			<linearGradient id="SVGID_5_" gradientUnits="userSpaceOnUse" x1="12.6777" y1="65.2435" x2="52.7433" y2="25.178">
				<stop  offset="0" style="stop-color:#1D81D4"/>
				<stop  offset="0.1118" style="stop-color:#2E8BD7"/>
				<stop  offset="0.3345" style="stop-color:#5CA4E0"/>
				<stop  offset="0.6473" style="stop-color:#A5CDEE"/>
				<stop  offset="1" style="stop-color:#FFFFFF"/>
			</linearGradient>
			<path class="st4" d="M44.92,42.69c-0.58,0.85-1.24,1.64-1.95,2.38c-0.71,0.74-1.48,1.41-2.31,2.02c-1.65,1.21-3.5,2.13-5.45,2.72
				c-1.95,0.57-3.99,0.84-6.01,0.73c-1.01-0.05-2.01-0.18-2.99-0.4c-0.98-0.22-1.94-0.52-2.87-0.9c0.95,0.32,1.92,0.56,2.9,0.72
				c0.98,0.17,1.98,0.25,2.97,0.24c1.98,0,3.96-0.32,5.82-0.96c1.86-0.64,3.62-1.57,5.16-2.79c0.77-0.61,1.5-1.27,2.15-1.99
				c0.66-0.72,1.27-1.48,1.8-2.3c0.53-0.82,0.99-1.68,1.38-2.57c0.09-0.23,0.19-0.45,0.28-0.67l0.25-0.68l0.22-0.7
				c0.04-0.12,0.07-0.23,0.1-0.35l0.09-0.35c0.39-1.56,0.57-3.18,0.52-4.79c-0.01-0.33-0.03-0.66-0.06-0.99
				c-0.04-0.44-0.09-0.89-0.17-1.33c-0.08-0.52-0.19-1.03-0.31-1.54c-0.23-0.94-0.56-1.86-0.95-2.74c-0.31-0.69-0.66-1.37-1.06-2.02
				c0.07-0.1,0.14-0.2,0.21-0.29c0.01-0.01,0.01-0.02,0.02-0.02c0.05-0.06,0.1-0.11,0.15-0.17c0.14-0.14,0.29-0.28,0.45-0.41
				c0.49,0.78,0.92,1.59,1.29,2.43c0.83,1.89,1.34,3.93,1.49,5.98C48.37,35.1,47.27,39.31,44.92,42.69z"/>
		</g>
		<g>
			<g>
				<path class="st16" d="M42.57,25.33c-0.39-3.01-2.32-4.68-5.8-5.01c3.48-0.33,5.42-2,5.8-5.01c0.39,3.01,2.32,4.68,5.8,5.01
					C44.89,20.65,42.96,22.32,42.57,25.33z"/>
			</g>
			<g>
				
					<radialGradient id="SVGID_6_" cx="-32742.7852" cy="395.688" r="7.2923" gradientTransform="matrix(0.0457 0 0 0.9427 1538.9189 -352.6988)" gradientUnits="userSpaceOnUse">
					<stop  offset="0" style="stop-color:#FFFFFF"/>
					<stop  offset="0.0437" style="stop-color:#F7FAFF"/>
					<stop  offset="0.111" style="stop-color:#E2EEFF"/>
					<stop  offset="0.1934" style="stop-color:#BED9FF"/>
					<stop  offset="0.2877" style="stop-color:#8EBDFF"/>
					<stop  offset="0.3922" style="stop-color:#4F98FF"/>
					<stop  offset="0.5037" style="stop-color:#046CFF"/>
					<stop  offset="0.5088" style="stop-color:#006AFF"/>
					<stop  offset="0.5151" style="stop-color:#0068FB;stop-opacity:0.9873"/>
					<stop  offset="0.6551" style="stop-color:#0044A3;stop-opacity:0.7021"/>
					<stop  offset="0.7784" style="stop-color:#00275D;stop-opacity:0.4511"/>
					<stop  offset="0.8804" style="stop-color:#00122B;stop-opacity:0.2436"/>
					<stop  offset="0.9572" style="stop-color:#00050C;stop-opacity:0.0872"/>
					<stop  offset="1" style="stop-color:#000000;stop-opacity:0"/>
				</radialGradient>
				<path class="st5" d="M42.91,20.32c0,3.8-0.15,6.88-0.33,6.88c-0.18,0-0.33-3.08-0.33-6.88c0-3.8,0.15-6.88,0.33-6.88
					C42.76,13.44,42.91,16.52,42.91,20.32z"/>
				
					<radialGradient id="SVGID_7_" cx="140216.6562" cy="-4874.2686" r="7.2987" gradientTransform="matrix(0 0.0463 -1.3512 0 -6543.5386 -6471.7148)" gradientUnits="userSpaceOnUse">
					<stop  offset="0" style="stop-color:#FFFFFF"/>
					<stop  offset="0.0437" style="stop-color:#F7FAFF"/>
					<stop  offset="0.111" style="stop-color:#E2EEFF"/>
					<stop  offset="0.1934" style="stop-color:#BED9FF"/>
					<stop  offset="0.2877" style="stop-color:#8EBDFF"/>
					<stop  offset="0.3922" style="stop-color:#4F98FF"/>
					<stop  offset="0.5037" style="stop-color:#046CFF"/>
					<stop  offset="0.5088" style="stop-color:#006AFF"/>
					<stop  offset="0.5151" style="stop-color:#0068FB;stop-opacity:0.9873"/>
					<stop  offset="0.6551" style="stop-color:#0044A3;stop-opacity:0.7021"/>
					<stop  offset="0.7784" style="stop-color:#00275D;stop-opacity:0.4511"/>
					<stop  offset="0.8804" style="stop-color:#00122B;stop-opacity:0.2436"/>
					<stop  offset="0.9572" style="stop-color:#00050C;stop-opacity:0.0872"/>
					<stop  offset="1" style="stop-color:#000000;stop-opacity:0"/>
				</radialGradient>
				<path class="st6" d="M42.57,20.65c-5.44,0-9.85-0.15-9.85-0.34c0-0.19,4.41-0.34,9.85-0.34c5.44,0,9.85,0.15,9.85,0.34
					C52.43,20.5,48.02,20.65,42.57,20.65z"/>
				
					<radialGradient id="SVGID_8_" cx="92176.5469" cy="-9108.8525" r="2.625" gradientTransform="matrix(-0.0467 0.0467 -0.7607 -0.7607 -2581.8857 -11213.4326)" gradientUnits="userSpaceOnUse">
					<stop  offset="0" style="stop-color:#FFFFFF"/>
					<stop  offset="0.0437" style="stop-color:#F7FAFF"/>
					<stop  offset="0.111" style="stop-color:#E2EEFF"/>
					<stop  offset="0.1934" style="stop-color:#BED9FF"/>
					<stop  offset="0.2877" style="stop-color:#8EBDFF"/>
					<stop  offset="0.3922" style="stop-color:#4F98FF"/>
					<stop  offset="0.5037" style="stop-color:#046CFF"/>
					<stop  offset="0.5088" style="stop-color:#006AFF"/>
					<stop  offset="0.5151" style="stop-color:#0068FB;stop-opacity:0.9873"/>
					<stop  offset="0.6551" style="stop-color:#0044A3;stop-opacity:0.7021"/>
					<stop  offset="0.7784" style="stop-color:#00275D;stop-opacity:0.4511"/>
					<stop  offset="0.8804" style="stop-color:#00122B;stop-opacity:0.2436"/>
					<stop  offset="0.9572" style="stop-color:#00050C;stop-opacity:0.0872"/>
					<stop  offset="1" style="stop-color:#000000;stop-opacity:0"/>
				</radialGradient>
				<path class="st7" d="M42.45,20.44c-1.1-1.1-1.94-2.05-1.87-2.12c0.07-0.07,1.02,0.77,2.12,1.87c1.1,1.1,1.94,2.05,1.87,2.12
					C44.5,22.38,43.55,21.54,42.45,20.44z"/>
				
					<radialGradient id="SVGID_9_" cx="53839.8438" cy="-10022.2012" r="2.6249" gradientTransform="matrix(0.0467 0.0467 1.0513 -1.0513 8064.5928 -13030.3438)" gradientUnits="userSpaceOnUse">
					<stop  offset="0" style="stop-color:#FFFFFF"/>
					<stop  offset="0.0437" style="stop-color:#F7FAFF"/>
					<stop  offset="0.111" style="stop-color:#E2EEFF"/>
					<stop  offset="0.1934" style="stop-color:#BED9FF"/>
					<stop  offset="0.2877" style="stop-color:#8EBDFF"/>
					<stop  offset="0.3922" style="stop-color:#4F98FF"/>
					<stop  offset="0.5037" style="stop-color:#046CFF"/>
					<stop  offset="0.5088" style="stop-color:#006AFF"/>
					<stop  offset="0.5151" style="stop-color:#0068FB;stop-opacity:0.9873"/>
					<stop  offset="0.6551" style="stop-color:#0044A3;stop-opacity:0.7021"/>
					<stop  offset="0.7784" style="stop-color:#00275D;stop-opacity:0.4511"/>
					<stop  offset="0.8804" style="stop-color:#00122B;stop-opacity:0.2436"/>
					<stop  offset="0.9572" style="stop-color:#00050C;stop-opacity:0.0872"/>
					<stop  offset="1" style="stop-color:#000000;stop-opacity:0"/>
				</radialGradient>
				<path class="st8" d="M42.7,20.44c1.52-1.52,2.7-2.81,2.64-2.88c-0.07-0.07-1.36,1.11-2.88,2.64c-1.52,1.52-2.7,2.81-2.64,2.88
					C39.88,23.14,41.17,21.96,42.7,20.44z"/>
				
					<radialGradient id="SVGID_10_" cx="6649.0908" cy="12414.6797" r="19.5874" gradientTransform="matrix(0 0.1023 -0.1331 0 1694.9677 -659.8858)" gradientUnits="userSpaceOnUse">
					<stop  offset="0.1397" style="stop-color:#FFFFFF"/>
					<stop  offset="0.2612" style="stop-color:#FAFCFF;stop-opacity:0.8588"/>
					<stop  offset="0.4033" style="stop-color:#ECF4FF;stop-opacity:0.6936"/>
					<stop  offset="0.5558" style="stop-color:#D4E6FF;stop-opacity:0.5163"/>
					<stop  offset="0.7156" style="stop-color:#B4D3FF;stop-opacity:0.3306"/>
					<stop  offset="0.8794" style="stop-color:#8ABAFF;stop-opacity:0.1402"/>
					<stop  offset="1" style="stop-color:#66A5FF;stop-opacity:0"/>
				</radialGradient>
				<path style="opacity:0.7;fill:url(#SVGID_10_);" d="M42.57,22.32c-1.44,0-2.61-0.9-2.61-2c0-1.11,1.17-2,2.61-2
					c1.44,0,2.61,0.9,2.61,2C45.18,21.42,44.01,22.32,42.57,22.32z"/>
				
					<radialGradient id="SVGID_11_" cx="6649.0908" cy="12414.6797" r="10.4062" gradientTransform="matrix(0 0.1023 -0.1331 0 1694.9677 -659.8858)" gradientUnits="userSpaceOnUse">
					<stop  offset="0.1285" style="stop-color:#FFFFFF"/>
					<stop  offset="1" style="stop-color:#FFFFFF;stop-opacity:0"/>
				</radialGradient>
				<path class="st13" d="M42.57,21.38c-0.77,0-1.39-0.48-1.39-1.06c0-0.59,0.62-1.06,1.39-1.06c0.76,0,1.39,0.48,1.39,1.06
					C43.96,20.9,43.34,21.38,42.57,21.38z"/>
			</g>
		</g>
	</g>
</g>
</svg>
